<svg width="175" height="60" viewBox="0 0 175 60" fill="none" xmlns="http://www.w3.org/2000/svg">
<path fill-rule="evenodd" clip-rule="evenodd" d="M16.3658 22.7639C17.7582 24.1563 20.0161 24.1563 21.4071 22.7625C22.7995 21.3709 22.8002 19.1143 21.4071 17.7212C20.9576 17.2724 20.419 16.9683 19.8484 16.8089L20.06 12.7181C20.5763 12.6019 21.0662 12.3423 21.4684 11.9415C22.5998 10.8101 22.5998 8.97653 21.4684 7.84509C21.3758 7.75255 21.2798 7.66974 21.1796 7.5925L22.5859 4.05554C23.0674 4.04093 23.544 3.84957 23.9121 3.48286C24.6789 2.71326 24.6796 1.47049 23.9121 0.702281C23.1446 -0.0659285 21.8998 -0.0652327 21.1323 0.702281C20.3668 1.4684 20.3655 2.70839 21.1274 3.4766L19.7218 7.01217C18.884 6.9245 18.0135 7.20284 17.372 7.8444C16.2405 8.97584 16.2405 10.8101 17.372 11.9401C17.699 12.2672 18.0838 12.4989 18.4944 12.6367L18.2828 16.7282C17.5814 16.8486 16.9078 17.1798 16.3665 17.7212C14.9734 19.1143 14.9734 21.3716 16.3658 22.7639ZM15.7152 2.87261C15.9246 2.51077 16.3874 2.38691 16.7492 2.59566C17.111 2.80442 17.2349 3.26715 17.0261 3.62899C16.8174 3.99083 16.354 4.11538 15.9928 3.90593C15.6303 3.69718 15.5064 3.23514 15.7152 2.87261ZM11.1136 6.52439C11.4803 5.88839 12.2931 5.67059 12.9284 6.038C13.5644 6.4047 13.7822 7.21745 13.4148 7.85275C13.048 8.48806 12.2353 8.70585 11.6 8.33845C10.964 7.97243 10.7462 7.16039 11.1136 6.52439ZM0.717832 20.9193C0.609282 20.5157 0.849341 20.1003 1.25293 19.9931C1.65651 19.8846 2.07123 20.1239 2.17978 20.5275C2.28833 20.9311 2.04826 21.3458 1.64467 21.4544C1.24109 21.5622 0.825687 21.3229 0.717832 20.9193ZM0.0456435 26.7553C-0.14432 26.0462 0.275965 25.3177 0.985022 25.1284C1.69408 24.9377 2.42193 25.3587 2.6119 26.0671C2.80186 26.7762 2.38157 27.504 1.67252 27.6947C0.964156 27.8846 0.235607 27.4637 0.0456435 26.7553ZM2.87283 44.2849C2.511 44.0762 2.38714 43.6135 2.59589 43.2516C2.80464 42.8898 3.26736 42.7652 3.6299 42.9747C3.99173 43.1841 4.11559 43.6462 3.90684 44.008C3.69809 44.3698 3.23467 44.4937 2.87283 44.2849ZM6.52458 48.8865C5.88859 48.5198 5.67149 47.7071 6.03819 47.0718C6.4049 46.4365 7.21694 46.2187 7.85294 46.5854C8.48893 46.9521 8.70673 47.7648 8.33933 48.4001C7.97262 49.0361 7.15988 49.2539 6.52458 48.8865ZM20.9193 59.2831C20.5157 59.3917 20.101 59.1516 19.9925 58.748C19.8839 58.3444 20.124 57.929 20.5276 57.8212C20.9319 57.7133 21.3466 57.9527 21.4544 58.3563C21.5623 58.7598 21.3229 59.1746 20.9193 59.2831ZM26.7546 59.9546C26.0456 60.1439 25.3177 59.7243 25.1278 59.0152C24.9378 58.3061 25.3581 57.5776 26.0671 57.3883C26.7762 57.1977 27.504 57.618 27.694 58.3277C27.8847 59.0368 27.4644 59.7646 26.7546 59.9546ZM44.2848 57.1274C44.0754 57.4899 43.6133 57.6138 43.2508 57.4043C42.889 57.1956 42.7651 56.7328 42.9739 56.371C43.1826 56.0092 43.646 55.8853 44.0079 56.0941C44.3697 56.3028 44.4936 56.7649 44.2848 57.1274ZM48.8864 53.4756C48.5197 54.1116 47.7076 54.3294 47.0723 53.962C46.4363 53.5953 46.2185 52.7833 46.5859 52.1473C46.9527 51.5113 47.7654 51.2942 48.4007 51.6616C49.0353 52.0276 49.2531 52.8403 48.8864 53.4756ZM59.2822 39.0807C59.3907 39.4843 59.1507 39.8997 58.7471 40.0076C58.3442 40.1155 57.9288 39.8761 57.8209 39.4725C57.7124 39.0689 57.9524 38.6535 58.356 38.5456C58.7596 38.4378 59.1743 38.6771 59.2822 39.0807ZM59.9544 33.2447C60.1443 33.9538 59.724 34.6823 59.015 34.8716C58.3059 35.0616 57.5781 34.642 57.3881 33.9322C57.1981 33.2231 57.6184 32.4953 58.3275 32.3053C59.0358 32.1154 59.7644 32.5363 59.9544 33.2447ZM57.1272 15.7151C57.489 15.9238 57.6129 16.3866 57.4041 16.7484C57.1954 17.1095 56.7326 17.2348 56.3708 17.0253C56.0083 16.8159 55.8844 16.3538 56.0938 15.9913C56.3019 15.6302 56.7646 15.5063 57.1272 15.7151ZM53.4754 11.1135C54.1114 11.4802 54.3292 12.2929 53.9618 12.9282C53.5951 13.5642 52.7831 13.782 52.1471 13.4146C51.5111 13.0479 51.2933 12.2352 51.6607 11.5999C52.0274 10.9639 52.8394 10.7461 53.4754 11.1135ZM39.0807 0.717587C39.4842 0.609732 39.899 0.849101 40.0075 1.25269C40.1161 1.65628 39.876 2.071 39.4724 2.17955C39.0688 2.2881 38.6534 2.04804 38.5456 1.64445C38.4377 1.24086 38.6771 0.825443 39.0807 0.717587ZM33.2447 0.0454059C33.9537 -0.143863 34.6816 0.27573 34.8715 0.984792C35.0615 1.69386 34.6412 2.4224 33.9322 2.61237C33.2231 2.80233 32.4953 2.38204 32.3046 1.67298C32.1153 0.963222 32.5363 0.235371 33.2447 0.0454059ZM27.8652 3.62064C28.8811 3.34857 29.9269 3.95117 30.199 4.96779C30.4711 5.98511 29.8678 7.02957 28.8512 7.30234C27.8346 7.57511 26.7894 6.97112 26.5166 5.95449C26.2446 4.93717 26.8479 3.89272 27.8652 3.62064ZM9.83746 12.8565C10.3635 11.945 11.529 11.6333 12.4406 12.1586C13.3521 12.6847 13.6646 13.8502 13.1385 14.7625C12.6118 15.6733 11.4462 15.9858 10.5354 15.4597C9.62313 14.9336 9.31071 13.7681 9.83746 12.8565ZM3.62086 32.1348C3.34879 31.1189 3.95137 30.0738 4.96868 29.8017C5.9846 29.5289 7.02975 30.1322 7.30252 31.1488C7.57529 32.1648 6.97131 33.2099 5.95469 33.482C4.93808 33.7548 3.89363 33.1515 3.62086 32.1348ZM12.8574 50.1634C11.9451 49.6367 11.6327 48.4711 12.1602 47.5603C12.6862 46.6487 13.851 46.3363 14.7626 46.863C15.6748 47.3891 15.9866 48.5539 15.4598 49.4662C14.9331 50.377 13.7682 50.6895 12.8574 50.1634ZM32.1355 56.3794C31.1196 56.6514 30.0738 56.0488 29.8017 55.0315C29.5296 54.0156 30.1329 52.9697 31.1488 52.6977C32.1661 52.4256 33.2106 53.0296 33.4827 54.0448C33.7547 55.0621 33.1521 56.1073 32.1355 56.3794ZM50.1625 47.1435C49.6365 48.055 48.471 48.3667 47.5594 47.8414C46.6472 47.3146 46.3347 46.1491 46.8615 45.2375C47.3882 44.326 48.5531 44.0143 49.4653 44.5403C50.3769 45.0657 50.6893 46.2319 50.1625 47.1435ZM56.3798 27.8652C56.6519 28.8811 56.0486 29.9262 55.0313 30.1983C54.0154 30.4704 52.9702 29.8671 52.6982 28.8512C52.4261 27.8338 53.0294 26.7901 54.0453 26.5173C55.0619 26.2452 56.1071 26.8485 56.3798 27.8652ZM47.1433 9.83659C48.0542 10.3633 48.3666 11.5282 47.8405 12.4397C47.3145 13.3506 46.1497 13.663 45.2374 13.137C44.3252 12.6102 44.0128 11.4454 44.5395 10.5338C45.0662 9.62297 46.2318 9.31054 47.1433 9.83659ZM15.2427 34.5244C17.2126 34.5251 18.8082 32.9281 18.8082 30.9596C18.8082 28.9903 17.2119 27.3941 15.2427 27.3941C14.6081 27.3941 14.0118 27.5604 13.4955 27.8519L10.7525 24.8097C11.035 24.3623 11.1985 23.8321 11.1992 23.2642C11.1985 21.6652 9.90217 20.3682 8.30175 20.3682C8.17232 20.3682 8.04499 20.3772 7.91973 20.3932L6.41324 16.898C6.74307 16.5466 6.94487 16.0741 6.94626 15.5536C6.94487 14.4681 6.06533 13.5886 4.97913 13.5886C3.89363 13.5879 3.01409 14.4688 3.01409 15.5536C3.01409 16.6371 3.88945 17.5145 4.97217 17.5194L6.47727 21.0139C5.82318 21.5448 5.40497 22.3555 5.40497 23.2642C5.40497 24.864 6.70132 26.1604 8.30105 26.1604C8.76309 26.1604 9.19937 26.0518 9.58696 25.859L12.3306 28.9006C11.9194 29.4816 11.6772 30.1921 11.6772 30.9582C11.6772 32.9281 13.2735 34.5244 15.2427 34.5244ZM22.764 43.6343C24.1564 42.242 24.1571 39.9846 22.764 38.593C21.3716 37.1999 19.1143 37.1999 17.722 38.593C17.2725 39.0411 16.9691 39.581 16.8097 40.1516L12.7189 39.9408C12.6027 39.4238 12.3432 38.9339 11.9424 38.5317C10.8109 37.401 8.9774 37.4017 7.84667 38.5324C7.75412 38.6243 7.66993 38.721 7.5927 38.8205L4.05645 37.4142C4.04114 36.9313 3.84979 36.4553 3.48239 36.0879C2.71349 35.3204 1.47073 35.3197 0.702526 36.0879C-0.0656774 36.8554 -0.0649815 38.1003 0.702526 38.8664C1.46864 39.6332 2.70931 39.6346 3.47612 38.872L7.01306 40.2783C6.92608 41.1168 7.20302 41.9859 7.84528 42.6281C8.97671 43.7582 10.8109 43.7596 11.9417 42.6281C12.2687 42.3018 12.4997 41.9163 12.6375 41.5064L16.729 41.7173C16.8487 42.4194 17.1799 43.0923 17.7213 43.635C19.115 45.0267 21.3716 45.026 22.764 43.6343ZM34.5243 44.7574C34.525 42.7882 32.9281 41.1919 30.9596 41.1919C28.991 41.1912 27.3948 42.7882 27.3948 44.7567C27.3948 45.392 27.5611 45.9884 27.8513 46.5047L24.8098 49.2477C24.3623 48.9659 23.8328 48.8023 23.2643 48.8016C21.6653 48.8016 20.3682 50.0987 20.3682 51.6991C20.3682 51.8286 20.3773 51.9566 20.3933 52.0818L16.8988 53.5883C16.5481 53.2578 16.0742 53.0567 15.5544 53.056C14.4689 53.0574 13.5887 53.937 13.5887 55.0211C13.5887 56.1073 14.4689 56.9875 15.5544 56.9868C16.6379 56.9875 17.5153 56.1122 17.5195 55.0287L21.0133 53.5229C21.5449 54.177 22.3562 54.5959 23.2643 54.5959C24.8647 54.5952 26.1611 53.2982 26.1611 51.6998C26.1611 51.2378 26.0532 50.8015 25.8605 50.4139L28.9027 47.6702C29.483 48.0815 30.1941 48.3229 30.9602 48.3236C32.9288 48.3229 34.5236 46.7266 34.5243 44.7574ZM43.6342 37.2361C42.2418 35.8437 39.9846 35.8437 38.5922 37.2361C37.1998 38.6291 37.1998 40.8857 38.5922 42.2781C39.041 42.7269 39.5803 43.031 40.1502 43.1911L39.9393 47.2805C39.423 47.3974 38.9331 47.657 38.5309 48.0585C37.3995 49.1878 37.4002 51.0228 38.5316 52.1542C38.6235 52.2461 38.7202 52.3303 38.8197 52.4068L37.4141 55.9424C36.9319 55.9577 36.4546 56.1497 36.0872 56.5164C35.3204 57.2854 35.3197 58.5295 36.0872 59.2963C36.8547 60.0645 38.0988 60.0645 38.8663 59.297C39.6318 58.5309 39.6339 57.2909 38.8712 56.5227L40.2775 52.9864C41.116 53.0734 41.9851 52.7965 42.6273 52.1535C43.7588 51.0221 43.7588 49.1885 42.6266 48.0578C42.301 47.7307 41.9148 47.4997 41.5056 47.3619L41.7165 43.2711C42.4186 43.1507 43.0915 42.8195 43.6335 42.2781C45.0266 40.885 45.0266 38.6277 43.6342 37.2361ZM44.7573 25.4756C42.7888 25.4756 41.1918 27.0719 41.1918 29.0411C41.1918 31.0104 42.7881 32.6066 44.758 32.6066C45.3926 32.6066 45.9896 32.4403 46.5052 32.1495L49.2482 35.1917C48.965 35.6384 48.8022 36.1686 48.8022 36.7365C48.8022 38.3355 50.0985 39.6325 51.6983 39.6325C51.8284 39.6325 51.9564 39.6242 52.081 39.6068L53.5875 43.102C53.2569 43.4534 53.0558 43.9266 53.0551 44.4457C53.0565 45.5312 53.9361 46.4114 55.0202 46.4114C56.1078 46.4114 56.9873 45.5312 56.9859 44.4464C56.9859 43.3622 56.1106 42.4855 55.0285 42.4813L53.522 38.9868C54.1761 38.4559 54.595 37.6452 54.5943 36.7365C54.595 35.1367 53.2987 33.8404 51.699 33.8397C51.2369 33.8404 50.8013 33.9482 50.4137 34.141L47.6701 31.0994C48.0813 30.5184 48.3234 29.8079 48.3241 29.0418C48.3228 27.0719 46.7265 25.4756 44.7573 25.4756ZM37.236 16.3657C35.8436 17.7581 35.8429 20.0161 37.236 21.4077C38.6284 22.8001 40.8857 22.8001 42.2787 21.4071C42.7268 20.9582 43.0316 20.419 43.191 19.8477L47.2818 20.0599C47.398 20.5755 47.6575 21.0661 48.059 21.4676C49.1898 22.5983 51.024 22.5983 52.1547 21.4676C52.2466 21.3757 52.3315 21.279 52.408 21.1788L55.9436 22.5851C55.9589 23.0666 56.1516 23.544 56.5183 23.9114C57.2865 24.6789 58.53 24.6789 59.2975 23.9121C60.0657 23.1439 60.0657 21.899 59.2975 21.1315C58.5314 20.3661 57.2914 20.364 56.5232 21.1266L52.9876 19.721C53.0739 18.8825 52.797 18.0127 52.154 17.3719C51.0226 16.2404 49.1891 16.2404 48.0583 17.3712C47.7313 17.6982 47.5003 18.083 47.3625 18.4936L43.2717 18.2827C43.152 17.5813 42.8201 16.9077 42.278 16.3664C40.885 14.9726 38.6291 14.9733 37.236 16.3657ZM25.4757 15.2426C25.4757 17.2125 27.0719 18.8088 29.0404 18.8074C31.0097 18.8074 32.6059 17.2118 32.6066 15.2426C32.6059 14.6073 32.4396 14.0116 32.1487 13.4953L35.1909 10.7523C35.6377 11.0348 36.1679 11.1977 36.7364 11.1991C38.3354 11.1991 39.6332 9.902 39.6318 8.30157C39.6325 8.17144 39.6227 8.0441 39.6067 7.91885L43.1012 6.41305C43.4533 6.74288 43.9251 6.94398 44.4449 6.94537C45.5311 6.94398 46.4099 6.06513 46.4099 4.97962C46.4106 3.89341 45.5304 3.01317 44.4456 3.01317C43.3621 3.01456 42.484 3.88924 42.4798 4.97196L38.9853 6.47707C38.4544 5.82368 37.6431 5.40478 36.7343 5.40478C35.1346 5.40548 33.8382 6.70113 33.8382 8.30087C33.8375 8.76291 33.9461 9.1992 34.1395 9.58679L31.0966 12.3305C30.5156 11.9192 29.8059 11.6771 29.0391 11.6771C27.0712 11.6771 25.4757 13.2727 25.4757 15.2426Z" fill="#0098da"/>
<path d="M87.936 16.2C88.0827 16.2 88.2 16.2587 88.288 16.376C88.4053 16.464 88.464 16.5813 88.464 16.728V21.04C88.464 21.1867 88.4053 21.3187 88.288 21.436C88.2 21.524 88.0827 21.568 87.936 21.568H80.06C79.9133 21.568 79.84 21.6413 79.84 21.788V46.472C79.84 46.6187 79.7813 46.7507 79.664 46.868C79.576 46.956 79.4587 47 79.312 47H74.164C74.0173 47 73.8853 46.956 73.768 46.868C73.68 46.7507 73.636 46.6187 73.636 46.472V21.788C73.636 21.6413 73.5627 21.568 73.416 21.568H65.76C65.6133 21.568 65.4813 21.524 65.364 21.436C65.276 21.3187 65.232 21.1867 65.232 21.04V16.728C65.232 16.5813 65.276 16.464 65.364 16.376C65.4813 16.2587 65.6133 16.2 65.76 16.2H87.936ZM100.798 24.076C101.854 24.076 102.69 24.2813 103.306 24.692C103.541 24.8093 103.629 25.0293 103.57 25.352L102.646 30.368C102.617 30.72 102.411 30.8227 102.03 30.676C101.59 30.5293 101.077 30.456 100.49 30.456C100.255 30.456 99.9328 30.4853 99.5221 30.544C98.4661 30.632 97.5714 31.028 96.8381 31.732C96.1048 32.4067 95.7381 33.316 95.7381 34.46V46.472C95.7381 46.6187 95.6794 46.7507 95.5621 46.868C95.4741 46.956 95.3568 47 95.2101 47H90.0621C89.9154 47 89.7834 46.956 89.6661 46.868C89.5781 46.7507 89.5341 46.6187 89.5341 46.472V24.912C89.5341 24.7653 89.5781 24.648 89.6661 24.56C89.7834 24.4427 89.9154 24.384 90.0621 24.384H95.2101C95.3568 24.384 95.4741 24.4427 95.5621 24.56C95.6794 24.648 95.7381 24.7653 95.7381 24.912V26.584C95.7381 26.672 95.7674 26.7307 95.8261 26.76C95.8848 26.7893 95.9288 26.7747 95.9581 26.716C97.1608 24.956 98.7741 24.076 100.798 24.076ZM115.14 24.032C117.047 24.032 118.748 24.3693 120.244 25.044C121.74 25.6893 122.899 26.584 123.72 27.728C124.571 28.872 124.996 30.148 124.996 31.556V46.472C124.996 46.6187 124.937 46.7507 124.82 46.868C124.732 46.956 124.615 47 124.468 47H119.32C119.173 47 119.041 46.956 118.924 46.868C118.836 46.7507 118.792 46.6187 118.792 46.472V45.02C118.792 44.932 118.763 44.8733 118.704 44.844C118.645 44.8147 118.587 44.844 118.528 44.932C117.296 46.5453 115.316 47.352 112.588 47.352C110.3 47.352 108.452 46.7947 107.044 45.68C105.636 44.5653 104.932 42.9227 104.932 40.752C104.932 38.4933 105.724 36.748 107.308 35.516C108.892 34.2547 111.151 33.624 114.084 33.624H118.572C118.719 33.624 118.792 33.5507 118.792 33.404V32.436C118.792 31.468 118.499 30.72 117.912 30.192C117.325 29.6347 116.445 29.356 115.272 29.356C114.363 29.356 113.6 29.5173 112.984 29.84C112.397 30.1627 112.016 30.6173 111.84 31.204C111.752 31.5267 111.561 31.6733 111.268 31.644L105.944 30.94C105.592 30.8813 105.431 30.7493 105.46 30.544C105.577 29.312 106.061 28.1973 106.912 27.2C107.792 26.2027 108.936 25.4253 110.344 24.868C111.781 24.3107 113.38 24.032 115.14 24.032ZM114.26 42.732C115.521 42.732 116.592 42.3947 117.472 41.72C118.352 41.0453 118.792 40.18 118.792 39.124V37.54C118.792 37.3933 118.719 37.32 118.572 37.32H115.404C114.084 37.32 113.043 37.5693 112.28 38.068C111.547 38.5667 111.18 39.2707 111.18 40.18C111.18 40.972 111.459 41.6027 112.016 42.072C112.573 42.512 113.321 42.732 114.26 42.732ZM143.182 24.912C143.182 24.7653 143.226 24.648 143.314 24.56C143.431 24.4427 143.563 24.384 143.71 24.384H148.858C149.005 24.384 149.122 24.4427 149.21 24.56C149.327 24.648 149.386 24.7653 149.386 24.912V44.976C149.386 48.8187 148.271 51.5613 146.042 53.204C143.842 54.8467 140.997 55.668 137.506 55.668C136.479 55.668 135.335 55.5947 134.074 55.448C133.781 55.4187 133.634 55.228 133.634 54.876L133.81 50.344C133.81 49.9627 134.015 49.8013 134.426 49.86C135.482 50.036 136.45 50.124 137.33 50.124C139.207 50.124 140.645 49.7133 141.642 48.892C142.669 48.0707 143.182 46.7507 143.182 44.932C143.182 44.844 143.153 44.8 143.094 44.8C143.035 44.7707 142.977 44.7853 142.918 44.844C141.803 46.0467 140.175 46.648 138.034 46.648C136.127 46.648 134.367 46.1933 132.754 45.284C131.17 44.3453 130.041 42.8493 129.366 40.796C128.926 39.4467 128.706 37.7013 128.706 35.56C128.706 33.272 128.97 31.4093 129.498 29.972C130.114 28.1827 131.155 26.7453 132.622 25.66C134.089 24.5747 135.79 24.032 137.726 24.032C139.985 24.032 141.715 24.7067 142.918 26.056C142.977 26.1147 143.035 26.144 143.094 26.144C143.153 26.1147 143.182 26.056 143.182 25.968V24.912ZM142.83 39.124C143.065 38.244 143.182 37.0413 143.182 35.516C143.182 34.6067 143.153 33.9027 143.094 33.404C143.035 32.9053 142.933 32.436 142.786 31.996C142.522 31.204 142.082 30.5733 141.466 30.104C140.85 29.6053 140.087 29.356 139.178 29.356C138.298 29.356 137.55 29.6053 136.934 30.104C136.318 30.5733 135.863 31.204 135.57 31.996C135.159 32.876 134.954 34.064 134.954 35.56C134.954 37.2027 135.13 38.376 135.482 39.08C135.746 39.872 136.201 40.5173 136.846 41.016C137.521 41.4853 138.313 41.72 139.222 41.72C140.161 41.72 140.938 41.4853 141.554 41.016C142.17 40.5173 142.595 39.8867 142.83 39.124ZM162.835 24.032C164.742 24.032 166.443 24.3693 167.939 25.044C169.435 25.6893 170.594 26.584 171.415 27.728C172.266 28.872 172.691 30.148 172.691 31.556V46.472C172.691 46.6187 172.633 46.7507 172.515 46.868C172.427 46.956 172.31 47 172.163 47H167.015C166.869 47 166.737 46.956 166.619 46.868C166.531 46.7507 166.487 46.6187 166.487 46.472V45.02C166.487 44.932 166.458 44.8733 166.399 44.844C166.341 44.8147 166.282 44.844 166.223 44.932C164.991 46.5453 163.011 47.352 160.283 47.352C157.995 47.352 156.147 46.7947 154.739 45.68C153.331 44.5653 152.627 42.9227 152.627 40.752C152.627 38.4933 153.419 36.748 155.003 35.516C156.587 34.2547 158.846 33.624 161.779 33.624H166.267C166.414 33.624 166.487 33.5507 166.487 33.404V32.436C166.487 31.468 166.194 30.72 165.607 30.192C165.021 29.6347 164.141 29.356 162.967 29.356C162.058 29.356 161.295 29.5173 160.679 29.84C160.093 30.1627 159.711 30.6173 159.535 31.204C159.447 31.5267 159.257 31.6733 158.963 31.644L153.639 30.94C153.287 30.8813 153.126 30.7493 153.155 30.544C153.273 29.312 153.757 28.1973 154.607 27.2C155.487 26.2027 156.631 25.4253 158.039 24.868C159.477 24.3107 161.075 24.032 162.835 24.032ZM161.955 42.732C163.217 42.732 164.287 42.3947 165.167 41.72C166.047 41.0453 166.487 40.18 166.487 39.124V37.54C166.487 37.3933 166.414 37.32 166.267 37.32H163.099C161.779 37.32 160.738 37.5693 159.975 38.068C159.242 38.5667 158.875 39.2707 158.875 40.18C158.875 40.972 159.154 41.6027 159.711 42.072C160.269 42.512 161.017 42.732 161.955 42.732Z" fill="white"/>
</svg>
