<svg width="155" height="47" viewBox="0 0 155 47" fill="none" xmlns="http://www.w3.org/2000/svg">
<path fill-rule="evenodd" clip-rule="evenodd" d="M12.5471 17.4524C13.6146 18.5198 15.3457 18.5198 16.4121 17.4513C17.4796 16.3843 17.4801 14.6543 16.4121 13.5862C16.0675 13.2421 15.6546 13.009 15.2171 12.8868L15.3793 9.75052C15.7752 9.66143 16.1507 9.46244 16.4591 9.15516C17.3265 8.28772 17.3265 6.88201 16.4591 6.01457C16.3881 5.94362 16.3145 5.88014 16.2377 5.82092L17.3158 3.10925C17.685 3.09805 18.0504 2.95134 18.3326 2.67019C18.9205 2.08017 18.921 1.12738 18.3326 0.538415C17.7442 -0.0505452 16.7898 -0.0500117 16.2014 0.538415C15.6146 1.12578 15.6135 2.07643 16.1977 2.66539L15.12 5.376C14.4777 5.30878 13.8104 5.52217 13.3185 6.01404C12.4511 6.88148 12.4511 8.28773 13.3185 9.1541C13.5692 9.40483 13.8643 9.58248 14.179 9.68811L14.0168 12.825C13.4791 12.9173 12.9627 13.1712 12.5476 13.5862C11.4796 14.6543 11.4796 16.3849 12.5471 17.4524ZM12.0483 2.20234C12.2089 1.92493 12.5636 1.82996 12.841 1.99001C13.1185 2.15005 13.2134 2.50482 13.0534 2.78223C12.8933 3.05964 12.538 3.15513 12.2612 2.99455C11.9832 2.83451 11.8883 2.48028 12.0483 2.20234ZM8.52044 5.00203C8.80158 4.51443 9.42468 4.34745 9.91174 4.62913C10.3993 4.91027 10.5663 5.53338 10.2846 6.02044C10.0035 6.50751 9.3804 6.67449 8.89334 6.39281C8.40574 6.1122 8.23876 5.48963 8.52044 5.00203ZM0.550338 16.0381C0.467116 15.7287 0.651161 15.4102 0.960576 15.328C1.26999 15.2448 1.58795 15.4283 1.67117 15.7378C1.75439 16.0472 1.57033 16.3651 1.26092 16.4484C0.951501 16.531 0.633026 16.3475 0.550338 16.0381ZM0.0349933 20.5124C-0.110645 19.9688 0.211573 19.4102 0.755184 19.2651C1.29879 19.1189 1.85681 19.4417 2.00245 19.9848C2.14809 20.5284 1.82587 21.0864 1.28226 21.2326C0.739186 21.3782 0.180632 21.0555 0.0349933 20.5124ZM2.20251 33.9518C1.9251 33.7917 1.83014 33.437 1.99018 33.1596C2.15023 32.8822 2.50498 32.7867 2.78292 32.9472C3.06033 33.1078 3.15528 33.4621 2.99524 33.7395C2.8352 34.0169 2.47991 34.1118 2.20251 33.9518ZM5.00218 37.4797C4.51458 37.1985 4.34814 36.5754 4.62928 36.0884C4.91042 35.6013 5.53299 35.4343 6.02059 35.7155C6.50818 35.9966 6.67516 36.6197 6.39348 37.1068C6.11234 37.5944 5.48924 37.7614 5.00218 37.4797ZM16.0382 45.4504C15.7287 45.5336 15.4108 45.3496 15.3276 45.0401C15.2444 44.7307 15.4284 44.4122 15.7378 44.3295C16.0478 44.2469 16.3657 44.4304 16.4484 44.7398C16.5311 45.0492 16.3476 45.3672 16.0382 45.4504ZM20.5119 45.9652C19.9683 46.1103 19.4103 45.7886 19.2646 45.245C19.119 44.7014 19.4412 44.1428 19.9848 43.9977C20.5284 43.8515 21.0864 44.1738 21.2321 44.7179C21.3782 45.2615 21.056 45.8195 20.5119 45.9652ZM33.9517 43.7977C33.7911 44.0756 33.4369 44.1706 33.159 44.01C32.8815 43.8499 32.7866 43.4952 32.9466 43.2178C33.1067 42.9404 33.462 42.8454 33.7394 43.0055C34.0168 43.1655 34.1117 43.5197 33.9517 43.7977ZM37.4796 40.998C37.1984 41.4856 36.5759 41.6525 36.0888 41.3709C35.6012 41.0897 35.4342 40.4672 35.7159 39.9796C35.997 39.492 36.6201 39.3255 37.1072 39.6072C37.5937 39.8878 37.7607 40.5109 37.4796 40.998ZM45.4497 29.9619C45.5329 30.2713 45.3488 30.5898 45.0394 30.6725C44.7305 30.7552 44.4121 30.5717 44.3294 30.2622C44.2461 29.9528 44.4302 29.6343 44.7396 29.5517C45.049 29.469 45.367 29.6525 45.4497 29.9619ZM45.965 25.4876C46.1106 26.0312 45.7884 26.5898 45.2448 26.7349C44.7012 26.8805 44.1432 26.5588 43.9975 26.0147C43.8519 25.4711 44.1741 24.9131 44.7177 24.7674C45.2608 24.6218 45.8194 24.9445 45.965 25.4876ZM43.7975 12.0482C44.0749 12.2083 44.1699 12.563 44.0098 12.8404C43.8498 13.1173 43.495 13.2133 43.2176 13.0528C42.9397 12.8922 42.8447 12.5379 43.0053 12.26C43.1648 11.9831 43.5196 11.8882 43.7975 12.0482ZM40.9978 8.52032C41.4854 8.80147 41.6524 9.42457 41.3707 9.91164C41.0896 10.3992 40.467 10.5662 39.9794 10.2845C39.4918 10.0034 39.3248 9.38029 39.6065 8.89322C39.8877 8.40562 40.5102 8.23865 40.9978 8.52032ZM29.9618 0.55015C30.2712 0.467461 30.5892 0.650978 30.6724 0.960395C30.7556 1.26981 30.5716 1.58777 30.2622 1.67099C29.9528 1.75421 29.6343 1.57016 29.5516 1.26074C29.4689 0.951327 29.6524 0.632839 29.9618 0.55015ZM25.4876 0.0348112C26.0312 -0.110295 26.5892 0.211393 26.7348 0.755007C26.8805 1.29862 26.5583 1.85718 26.0147 2.00281C25.471 2.14845 24.913 1.82623 24.7669 1.28262C24.6218 0.73847 24.9445 0.180451 25.4876 0.0348112ZM21.3633 2.77583C22.1422 2.56723 22.944 3.02923 23.1526 3.80864C23.3612 4.58858 22.8986 5.38934 22.1192 5.59846C21.3398 5.80758 20.5386 5.34452 20.3294 4.56511C20.1208 3.78517 20.5834 2.98442 21.3633 2.77583ZM7.54205 9.85669C7.94536 9.15783 8.83893 8.91883 9.53778 9.32161C10.2366 9.72492 10.4762 10.6185 10.0729 11.3179C9.66901 12.0162 8.77544 12.2557 8.07712 11.8524C7.37773 11.4491 7.13821 10.5555 7.54205 9.85669ZM2.77599 24.6367C2.5674 23.8578 3.02938 23.0566 3.80932 22.848C4.5882 22.6388 5.38948 23.1014 5.5986 23.8808C5.80772 24.6597 5.34467 25.4609 4.56527 25.6695C3.78586 25.8787 2.98511 25.4161 2.77599 24.6367ZM9.85733 38.4586C9.15794 38.0548 8.91841 37.1612 9.32279 36.4629C9.72609 35.764 10.6191 35.5245 11.318 35.9283C12.0174 36.3316 12.2564 37.2247 11.8525 37.9241C11.4487 38.6224 10.5556 38.8619 9.85733 38.4586ZM24.6372 43.2242C23.8584 43.4328 23.0565 42.9708 22.848 42.1908C22.6394 41.4119 23.1019 40.6101 23.8808 40.4015C24.6607 40.193 25.4614 40.656 25.67 41.4344C25.8786 42.2143 25.4166 43.0156 24.6372 43.2242ZM38.4579 36.1433C38.0546 36.8422 37.1611 37.0812 36.4622 36.6784C35.7628 36.2746 35.5233 35.381 35.9271 34.6821C36.331 33.9833 37.224 33.7443 37.9234 34.1476C38.6223 34.5503 38.8618 35.4445 38.4579 36.1433ZM43.2245 21.3633C43.4331 22.1422 42.9706 22.9434 42.1907 23.152C41.4118 23.3606 40.6105 22.8981 40.4019 22.1192C40.1933 21.3393 40.6559 20.5391 41.4347 20.3299C42.2141 20.1213 43.0154 20.5839 43.2245 21.3633ZM36.1432 7.54139C36.8415 7.94523 37.0811 8.83828 36.6777 9.53713C36.2744 10.2355 35.3814 10.475 34.682 10.0717C33.9826 9.66784 33.7431 8.77479 34.1469 8.07593C34.5508 7.37761 35.4444 7.13808 36.1432 7.54139ZM11.6861 26.4687C13.1963 26.4692 14.4196 25.2449 14.4196 23.7357C14.4196 22.2259 13.1958 21.0021 11.6861 21.0021C11.1996 21.0021 10.7424 21.1296 10.3465 21.3532L8.24357 19.0208C8.46016 18.6778 8.58552 18.2712 8.58605 17.8359C8.58552 16.61 7.59166 15.6156 6.36467 15.6156C6.26545 15.6156 6.16782 15.6225 6.0718 15.6348L4.91682 12.9551C5.16968 12.6857 5.3244 12.3235 5.32547 11.9244C5.3244 11.0922 4.65009 10.4179 3.81733 10.4179C2.98511 10.4174 2.3108 11.0928 2.3108 11.9244C2.3108 12.7551 2.98191 13.4278 3.81199 13.4315L4.96591 16.1107C4.46444 16.5177 4.14381 17.1392 4.14381 17.8359C4.14381 19.0624 5.13768 20.0563 6.36414 20.0563C6.71837 20.0563 7.05285 19.973 7.35 19.8253L9.45348 22.1571C9.1382 22.6026 8.95256 23.1472 8.95256 23.7346C8.95256 25.2449 10.1763 26.4687 11.6861 26.4687ZM17.4524 33.453C18.5199 32.3855 18.5204 30.6549 17.4524 29.5879C16.3849 28.5199 14.6543 28.5199 13.5868 29.5879C13.2422 29.9315 13.0096 30.3455 12.8875 30.7829L9.75117 30.6213C9.66208 30.2249 9.4631 29.8493 9.15581 29.541C8.28839 28.6741 6.88268 28.6746 6.01578 29.5415C5.94483 29.6119 5.88028 29.6861 5.82107 29.7624L3.10995 28.6842C3.09821 28.314 2.9515 27.9491 2.66983 27.6674C2.08034 27.079 1.12756 27.0784 0.538603 27.6674C-0.0503526 28.2558 -0.0498192 29.2102 0.538603 29.7976C1.12596 30.3855 2.07714 30.3865 2.66502 29.8019L5.37668 30.88C5.30999 31.5229 5.52232 32.1892 6.01471 32.6816C6.88214 33.5479 8.28838 33.549 9.15528 32.6816C9.40601 32.4314 9.58313 32.1358 9.68875 31.8216L12.8256 31.9832C12.9173 32.5215 13.1713 33.0374 13.5863 33.4535C14.6549 34.5205 16.3849 34.5199 17.4524 33.453ZM26.4686 34.314C26.4692 32.8043 25.2449 31.5805 23.7357 31.5805C22.2265 31.5799 21.0027 32.8043 21.0027 34.3135C21.0027 34.8006 21.1302 35.2577 21.3526 35.6536L19.0208 37.7566C18.6778 37.5405 18.2718 37.4151 17.836 37.4146C16.61 37.4146 15.6156 38.409 15.6156 39.636C15.6156 39.7352 15.6226 39.8334 15.6349 39.9294L12.9558 41.0844C12.6869 40.831 12.3236 40.6768 11.9251 40.6763C11.0929 40.6773 10.418 41.3517 10.418 42.1828C10.418 43.0156 11.0929 43.6904 11.9251 43.6899C12.7557 43.6904 13.4284 43.0193 13.4316 42.1887L16.1102 41.0342C16.5178 41.5357 17.1398 41.8569 17.836 41.8569C19.063 41.8563 20.0568 40.8619 20.0568 39.6365C20.0568 39.2823 19.9741 38.9478 19.8264 38.6507L22.1587 36.5472C22.6036 36.8624 23.1488 37.0476 23.7362 37.0481C25.2454 37.0476 26.4681 35.8238 26.4686 34.314ZM33.4529 28.5476C32.3854 27.4802 30.6548 27.4802 29.5873 28.5476C28.5199 29.6157 28.5199 31.3457 29.5873 32.4132C29.9314 32.7573 30.3449 32.9905 30.7818 33.1132L30.6201 36.2484C30.2243 36.338 29.8487 36.537 29.5404 36.8448C28.673 37.7107 28.6735 39.1175 29.5409 39.9849C29.6113 40.0553 29.6855 40.1199 29.7618 40.1785L28.6842 42.8892C28.3145 42.9009 27.9485 43.0481 27.6668 43.3293C27.079 43.9188 27.0784 44.8726 27.6668 45.4605C28.2553 46.0495 29.2091 46.0495 29.7975 45.4611C30.3844 44.8737 30.386 43.923 29.8013 43.3341L30.8794 40.6229C31.5223 40.6896 32.1886 40.4773 32.681 39.9844C33.5484 39.1169 33.5484 37.7112 32.6804 36.8443C32.4308 36.5936 32.1347 36.4165 31.821 36.3108L31.9826 33.1745C32.5209 33.0822 33.0368 32.8283 33.4524 32.4132C34.5204 31.3452 34.5204 29.6146 33.4529 28.5476ZM34.3139 19.5313C32.8047 19.5313 31.5804 20.7551 31.5804 22.2649C31.5804 23.7746 32.8042 24.9984 34.3145 24.9984C34.801 24.9984 35.2587 24.8709 35.654 24.6479L37.757 26.9803C37.5398 27.3228 37.415 27.7293 37.415 28.1646C37.415 29.3905 38.4089 30.3849 39.6353 30.3849C39.7351 30.3849 39.8332 30.3785 39.9287 30.3652L41.0837 33.0449C40.8303 33.3143 40.6761 33.677 40.6756 34.075C40.6767 34.9072 41.351 35.5821 42.1821 35.5821C43.016 35.5821 43.6903 34.9072 43.6892 34.0756C43.6892 33.2444 43.0181 32.5722 42.1885 32.569L41.0336 29.8899C41.535 29.4828 41.8562 28.8613 41.8557 28.1646C41.8562 26.9381 40.8623 25.9443 39.6359 25.9437C39.2816 25.9443 38.9477 26.027 38.6505 26.1747L36.547 23.8429C36.8623 23.3974 37.048 22.8528 37.0485 22.2654C37.0474 20.7551 35.8237 19.5313 34.3139 19.5313ZM28.5476 12.547C27.4801 13.6145 27.4796 15.3456 28.5476 16.4126C29.6151 17.4801 31.3457 17.4801 32.4137 16.4121C32.7572 16.068 32.9909 15.6545 33.1131 15.2165L36.2494 15.3793C36.3385 15.7746 36.5374 16.1507 36.8453 16.4585C37.7121 17.3254 39.1184 17.3254 39.9853 16.4585C40.0557 16.3881 40.1208 16.3139 40.1795 16.2371L42.8901 17.3153C42.9018 17.6844 43.0496 18.0504 43.3307 18.3321C43.9197 18.9205 44.873 18.9205 45.4614 18.3326C46.0504 17.7436 46.0504 16.7892 45.4614 16.2008C44.874 15.614 43.9234 15.6124 43.3344 16.1971L40.6239 15.1195C40.69 14.4766 40.4777 13.8098 39.9848 13.3184C39.1173 12.451 37.7116 12.451 36.8447 13.3179C36.594 13.5686 36.4169 13.8636 36.3112 14.1784L33.175 14.0168C33.0832 13.479 32.8287 12.9626 32.4132 12.5476C31.3451 11.479 29.6156 11.4795 28.5476 12.547ZM19.5314 11.686C19.5314 13.1963 20.7551 14.4201 22.2643 14.419C23.7741 14.419 24.9979 13.1957 24.9984 11.686C24.9979 11.1989 24.8704 10.7423 24.6474 10.3464L26.9797 8.24345C27.3222 8.46004 27.7287 8.58487 28.1646 8.58594C29.3905 8.58594 30.3854 7.59154 30.3844 6.36453C30.3849 6.26477 30.3774 6.16715 30.3651 6.07112L33.0442 4.91668C33.3142 5.16954 33.6759 5.32372 34.0744 5.32478C34.9071 5.32372 35.5809 4.64993 35.5809 3.81771C35.5815 2.98495 34.9066 2.3101 34.0749 2.3101C33.2443 2.31116 32.5711 2.98175 32.5679 3.81184L29.8888 4.96575C29.4817 4.46482 28.8597 4.14367 28.163 4.14367C26.9365 4.1442 25.9426 5.13754 25.9426 6.364C25.9421 6.71823 26.0253 7.05272 26.1736 7.34987L23.8407 9.45338C23.3953 9.13809 22.8512 8.95244 22.2633 8.95244C20.7546 8.95244 19.5314 10.1757 19.5314 11.686Z" fill="#0098da"/>
<path d="M75.76 11C75.8933 11 76 11.0533 76.08 11.16C76.1867 11.24 76.24 11.3467 76.24 11.48V15.4C76.24 15.5333 76.1867 15.6533 76.08 15.76C76 15.84 75.8933 15.88 75.76 15.88H68.6C68.4667 15.88 68.4 15.9467 68.4 16.08V38.52C68.4 38.6533 68.3467 38.7733 68.24 38.88C68.16 38.96 68.0533 39 67.92 39H63.24C63.1067 39 62.9867 38.96 62.88 38.88C62.8 38.7733 62.76 38.6533 62.76 38.52V16.08C62.76 15.9467 62.6933 15.88 62.56 15.88H55.6C55.4667 15.88 55.3467 15.84 55.24 15.76C55.16 15.6533 55.12 15.5333 55.12 15.4V11.48C55.12 11.3467 55.16 11.24 55.24 11.16C55.3467 11.0533 55.4667 11 55.6 11H75.76ZM87.4528 18.16C88.4128 18.16 89.1728 18.3467 89.7328 18.72C89.9461 18.8267 90.0261 19.0267 89.9728 19.32L89.1328 23.88C89.1061 24.2 88.9195 24.2933 88.5728 24.16C88.1728 24.0267 87.7061 23.96 87.1728 23.96C86.9595 23.96 86.6661 23.9867 86.2928 24.04C85.3328 24.12 84.5195 24.48 83.8528 25.12C83.1861 25.7333 82.8528 26.56 82.8528 27.6V38.52C82.8528 38.6533 82.7995 38.7733 82.6928 38.88C82.6128 38.96 82.5061 39 82.3728 39H77.6928C77.5595 39 77.4395 38.96 77.3328 38.88C77.2528 38.7733 77.2128 38.6533 77.2128 38.52V18.92C77.2128 18.7867 77.2528 18.68 77.3328 18.6C77.4395 18.4933 77.5595 18.44 77.6928 18.44H82.3728C82.5061 18.44 82.6128 18.4933 82.6928 18.6C82.7995 18.68 82.8528 18.7867 82.8528 18.92V20.44C82.8528 20.52 82.8795 20.5733 82.9328 20.6C82.9861 20.6267 83.0261 20.6133 83.0528 20.56C84.1461 18.96 85.6128 18.16 87.4528 18.16ZM100.491 18.12C102.224 18.12 103.771 18.4267 105.131 19.04C106.491 19.6267 107.544 20.44 108.291 21.48C109.064 22.52 109.451 23.68 109.451 24.96V38.52C109.451 38.6533 109.398 38.7733 109.291 38.88C109.211 38.96 109.104 39 108.971 39H104.291C104.158 39 104.038 38.96 103.931 38.88C103.851 38.7733 103.811 38.6533 103.811 38.52V37.2C103.811 37.12 103.784 37.0667 103.731 37.04C103.678 37.0133 103.624 37.04 103.571 37.12C102.451 38.5867 100.651 39.32 98.1709 39.32C96.0909 39.32 94.4109 38.8133 93.1309 37.8C91.8509 36.7867 91.2109 35.2933 91.2109 33.32C91.2109 31.2667 91.9309 29.68 93.3709 28.56C94.8109 27.4133 96.8643 26.84 99.5309 26.84H103.611C103.744 26.84 103.811 26.7733 103.811 26.64V25.76C103.811 24.88 103.544 24.2 103.011 23.72C102.478 23.2133 101.678 22.96 100.611 22.96C99.7843 22.96 99.0909 23.1067 98.5309 23.4C97.9976 23.6933 97.6509 24.1067 97.4909 24.64C97.4109 24.9333 97.2376 25.0667 96.9709 25.04L92.1309 24.4C91.8109 24.3467 91.6643 24.2267 91.6909 24.04C91.7976 22.92 92.2376 21.9067 93.0109 21C93.8109 20.0933 94.8509 19.3867 96.1309 18.88C97.4376 18.3733 98.8909 18.12 100.491 18.12ZM99.6909 35.12C100.838 35.12 101.811 34.8133 102.611 34.2C103.411 33.5867 103.811 32.8 103.811 31.84V30.4C103.811 30.2667 103.744 30.2 103.611 30.2H100.731C99.5309 30.2 98.5843 30.4267 97.8909 30.88C97.2243 31.3333 96.8909 31.9733 96.8909 32.8C96.8909 33.52 97.1443 34.0933 97.6509 34.52C98.1576 34.92 98.8376 35.12 99.6909 35.12ZM125.984 18.92C125.984 18.7867 126.024 18.68 126.104 18.6C126.21 18.4933 126.33 18.44 126.464 18.44H131.144C131.277 18.44 131.384 18.4933 131.464 18.6C131.57 18.68 131.624 18.7867 131.624 18.92V37.16C131.624 40.6533 130.61 43.1467 128.584 44.64C126.584 46.1333 123.997 46.88 120.824 46.88C119.89 46.88 118.85 46.8133 117.704 46.68C117.437 46.6533 117.304 46.48 117.304 46.16L117.464 42.04C117.464 41.6933 117.65 41.5467 118.024 41.6C118.984 41.76 119.864 41.84 120.664 41.84C122.37 41.84 123.677 41.4667 124.584 40.72C125.517 39.9733 125.984 38.7733 125.984 37.12C125.984 37.04 125.957 37 125.904 37C125.85 36.9733 125.797 36.9867 125.744 37.04C124.73 38.1333 123.25 38.68 121.304 38.68C119.57 38.68 117.97 38.2667 116.504 37.44C115.064 36.5867 114.037 35.2267 113.424 33.36C113.024 32.1333 112.824 30.5467 112.824 28.6C112.824 26.52 113.064 24.8267 113.544 23.52C114.104 21.8933 115.05 20.5867 116.384 19.6C117.717 18.6133 119.264 18.12 121.024 18.12C123.077 18.12 124.65 18.7333 125.744 19.96C125.797 20.0133 125.85 20.04 125.904 20.04C125.957 20.0133 125.984 19.96 125.984 19.88V18.92ZM125.664 31.84C125.877 31.04 125.984 29.9467 125.984 28.56C125.984 27.7333 125.957 27.0933 125.904 26.64C125.85 26.1867 125.757 25.76 125.624 25.36C125.384 24.64 124.984 24.0667 124.424 23.64C123.864 23.1867 123.17 22.96 122.344 22.96C121.544 22.96 120.864 23.1867 120.304 23.64C119.744 24.0667 119.33 24.64 119.064 25.36C118.69 26.16 118.504 27.24 118.504 28.6C118.504 30.0933 118.664 31.16 118.984 31.8C119.224 32.52 119.637 33.1067 120.224 33.56C120.837 33.9867 121.557 34.2 122.384 34.2C123.237 34.2 123.944 33.9867 124.504 33.56C125.064 33.1067 125.45 32.5333 125.664 31.84ZM143.85 18.12C145.584 18.12 147.13 18.4267 148.49 19.04C149.85 19.6267 150.904 20.44 151.65 21.48C152.424 22.52 152.81 23.68 152.81 24.96V38.52C152.81 38.6533 152.757 38.7733 152.65 38.88C152.57 38.96 152.464 39 152.33 39H147.65C147.517 39 147.397 38.96 147.29 38.88C147.21 38.7733 147.17 38.6533 147.17 38.52V37.2C147.17 37.12 147.144 37.0667 147.09 37.04C147.037 37.0133 146.984 37.04 146.93 37.12C145.81 38.5867 144.01 39.32 141.53 39.32C139.45 39.32 137.77 38.8133 136.49 37.8C135.21 36.7867 134.57 35.2933 134.57 33.32C134.57 31.2667 135.29 29.68 136.73 28.56C138.17 27.4133 140.224 26.84 142.89 26.84H146.97C147.104 26.84 147.17 26.7733 147.17 26.64V25.76C147.17 24.88 146.904 24.2 146.37 23.72C145.837 23.2133 145.037 22.96 143.97 22.96C143.144 22.96 142.45 23.1067 141.89 23.4C141.357 23.6933 141.01 24.1067 140.85 24.64C140.77 24.9333 140.597 25.0667 140.33 25.04L135.49 24.4C135.17 24.3467 135.024 24.2267 135.05 24.04C135.157 22.92 135.597 21.9067 136.37 21C137.17 20.0933 138.21 19.3867 139.49 18.88C140.797 18.3733 142.25 18.12 143.85 18.12ZM143.05 35.12C144.197 35.12 145.17 34.8133 145.97 34.2C146.77 33.5867 147.17 32.8 147.17 31.84V30.4C147.17 30.2667 147.104 30.2 146.97 30.2H144.09C142.89 30.2 141.944 30.4267 141.25 30.88C140.584 31.3333 140.25 31.9733 140.25 32.8C140.25 33.52 140.504 34.0933 141.01 34.52C141.517 34.92 142.197 35.12 143.05 35.12Z" fill="#141D38"/>
</svg>
